<svg id="Layer_1" data-name="Layer 1" xmlns="http://www.w3.org/2000/svg" viewBox="0 0 512 512"><defs><style>.cls-1{fill:#f5ceb7;}.cls-2{fill:#f44747;}.cls-3{fill:#908fe2;}</style></defs><title>stethoscope-flat</title><path class="cls-1" d="M435.2,344.69V358.4c0,84.69-68.9,153.6-153.59,153.6-81.08,0-147.68-63.16-153.21-142.86a38.41,38.41,0,0,1-26-36.34v-6.2c-31.81-11.92-48.43-38.25-53.35-54L3.46,124.32a77.27,77.27,0,0,1,10-66.38A72.67,72.67,0,0,1,67.81,25.86c2.06-.18,4.17-.26,6.29-.26a12.8,12.8,0,0,1,0,25.6q-2.11,0-4.19.17A47.22,47.22,0,0,0,34.62,72.3a51.81,51.81,0,0,0-6.71,44.49L73.53,265a64.85,64.85,0,0,0,33.89,36,38.4,38.4,0,0,1,66.21-1A65.21,65.21,0,0,0,205.4,265L251,116.79a51.82,51.82,0,0,0-6.71-44.49A47.21,47.21,0,0,0,209,51.37c-1.41-.11-2.8-.17-4.21-.17a12.8,12.8,0,0,1,0-25.6c2.12,0,4.23.08,6.31.26a72.67,72.67,0,0,1,54.36,32.08,77.27,77.27,0,0,1,10,66.38L229.85,272.56c-4.78,15.32-20.59,40.61-50.63,53v7.26a38.41,38.41,0,0,1-25.17,36.06c5.34,65.71,60.51,117.54,127.56,117.54a128.14,128.14,0,0,0,128-128V344.69a89.59,89.59,0,1,1,25.6,0Z"/><circle class="cls-2" cx="422.41" cy="256" r="38.4"/><circle class="cls-3" cx="211.22" cy="44.8" r="44.8"/><circle class="cls-3" cx="70.43" cy="44.8" r="44.8"/></svg>