<?xml version="1.0" encoding="iso-8859-1"?>
<!-- Generator: Adobe Illustrator 19.0.0, SVG Export Plug-In . SVG Version: 6.00 Build 0)  -->
<svg version="1.1" id="Layer_1" xmlns="http://www.w3.org/2000/svg" xmlns:xlink="http://www.w3.org/1999/xlink" x="0px" y="0px"
	 viewBox="0 0 511.999 511.999" style="enable-background:new 0 0 511.999 511.999;" xml:space="preserve">
<circle style="fill:#ECF0F1;" cx="256" cy="256" r="256"/>
<circle style="fill:#0F7986;" cx="256" cy="256" r="256"/>
<path style="fill:#EEF3F7;" d="M74.699,16.505h246.348c7.812,0,14.145,6.333,14.145,14.145v325.722
	c0,7.812-6.333,14.145-14.145,14.145H74.699c-7.812,0-14.145-6.333-14.145-14.145V30.65C60.554,22.837,66.886,16.505,74.699,16.505z
	"/>
<path style="fill:#21D0C3;" d="M77.749,41.561h240.248c0.907,0,1.643,0.736,1.643,1.643v292.531c0,0.907-0.736,1.643-1.643,1.643
	H77.749c-0.907,0-1.643-0.736-1.643-1.643V43.204C76.105,42.296,76.842,41.561,77.749,41.561z"/>
<g>
	<circle style="fill:#ECF0F1;" cx="197.873" cy="353.349" r="9.226"/>
	<circle style="fill:#ECF0F1;" cx="325.035" cy="358.918" r="6.489"/>
</g>
<path style="fill:#FF5B62;" d="M319.64,69.697H76.104V43.203c0-0.905,0.74-1.643,1.643-1.643h240.249
	c0.907,0,1.643,0.738,1.643,1.643v26.494H319.64z"/>
<g>
	<path style="fill:#FFFFFF;" d="M94.155,49.565c3.502,0,6.335,2.833,6.335,6.336c0,3.5-2.832,6.335-6.335,6.335
		c-3.498,0-6.336-2.834-6.336-6.335C87.819,52.399,90.657,49.565,94.155,49.565z"/>
	<path style="fill:#FFFFFF;" d="M111.987,49.565c3.502,0,6.335,2.833,6.335,6.336c0,3.5-2.832,6.335-6.335,6.335
		c-3.498,0-6.336-2.834-6.336-6.335C105.651,52.399,108.488,49.565,111.987,49.565z"/>
	<path style="fill:#FFFFFF;" d="M129.819,49.565c3.502,0,6.335,2.833,6.335,6.336c0,3.5-2.832,6.335-6.335,6.335
		c-3.498,0-6.336-2.834-6.336-6.335C123.484,52.399,126.321,49.565,129.819,49.565z"/>
	<path style="fill:#FFFFFF;" d="M165.366,50.979h144.827c1.067,0,1.938,1.147,1.938,2.553v4.738c0,1.405-0.871,2.553-1.938,2.553
		H165.366c-1.067,0-1.938-1.148-1.938-2.553v-4.738C163.427,52.126,164.299,50.979,165.366,50.979z"/>
</g>
<path style="fill:#B3B3B3;" d="M158.134,179.398c12.206,0,24.41,0,36.615,0l0.201,2.502l-17.894,27.127l-19.222-27.395
	L158.134,179.398L158.134,179.398z"/>
<path style="fill:#F0BA7D;" d="M158.371,172.594l-0.317,15.3l-25.961,14.197v52.033h43.702h43.696v-52.033l-24.126-14.998
	l-1.325-15.298L158.371,172.594z"/>
<path style="fill:#FED298;" d="M146.376,127.973c0,0-1.49-3.273-5.486-1.649c-3.997,1.62,0.181,17.781,1.708,20.036
	c1.526,2.254,3.983,0.82,4.878,0.734c1.272,9.635,1.386,16.275,5.241,20.338c3.654,3.845,12.018,11.685,16.424,14.419
	c2.984,0.63,5.211,0.998,7.304,1.111c2.094-0.112,4.322-0.481,7.305-1.111c4.405-2.734,12.769-10.573,16.421-14.419
	c3.856-4.063,3.97-10.703,5.243-20.338c0.894,0.087,3.353,1.521,4.878-0.734c1.528-2.254,5.705-18.416,1.707-20.036
	c-3.996-1.623-5.484,1.649-5.484,1.649s3.95-12.691-3.072-25.184c-4.812-8.562-15.788-13.003-26.998-13.329
	c-11.21,0.326-22.186,4.767-26.997,13.329C142.425,115.282,146.376,127.973,146.376,127.973L146.376,127.973z"/>
<path style="fill:#EBECEC;" d="M145.323,192.398l6.217-2.449l5.011-4.503l17.688,13.418h4.407l17.694-13.433l11.224,6.968
	l19.506,33.155l-10.119,54.909h-79.628L119.833,228.2L145.323,192.398L145.323,192.398z"/>
<g>
	<path style="fill:#FFFFFF;" d="M201.89,188.205l-7.141-8.807l-16.103,19.465l13.822,15.358L201.89,188.205L201.89,188.205z"/>
	<path style="fill:#FFFFFF;" d="M150.986,188.049l7.148-8.651l16.106,19.465l-14.372,15.201L150.986,188.049z"/>
	<path style="fill:#FFFFFF;" d="M150.986,188.049l-47.335,15.393c-1.923,0.624-3.134,2.262-3.524,4.247l-13.921,70.537
		c0.798,0.755,1.607,1.5,2.423,2.236h35.405l0.809-2.645c0.081-0.26,0.326-0.422,0.595-0.389c0.269,0.032,0.474,0.247,0.49,0.517
		l0.094,2.517h45.024L150.986,188.049L150.986,188.049z"/>
</g>
<g>
	<path style="fill:#EEF3F7;" d="M150.986,188.049l-5.422,1.666l-14.363,24.506l18.132,0.569l-11.132,6.339l26.949,59.334h5.897
		L150.986,188.049z"/>
	<path style="fill:#EEF3F7;" d="M201.89,188.205l47.348,15.238c1.928,0.62,3.133,2.262,3.524,4.247l13.921,70.536
		c-0.8,0.755-1.609,1.5-2.426,2.236h-35.406l-0.811-2.645c-0.079-0.258-0.327-0.422-0.597-0.388
		c-0.267,0.031-0.47,0.247-0.487,0.516l-0.094,2.517h-45.017L201.89,188.205L201.89,188.205z"/>
</g>
<path style="fill:#FFFFFF;" d="M201.89,188.205l3.009,0.915l16.775,25.259l-18.131,0.568l11.132,6.339l-26.921,59.178h-5.907
	L201.89,188.205L201.89,188.205z"/>
<g>
	<path style="fill:#666666;" d="M203.065,131.751l2.787-0.097l0.897-3.177l2.623-2.619c1.732-13.047,2.246-33.355-10.708-32.769
		c0,0-1.167-14.809-24.528-11.903c-23.363,2.902-33.92,17.983-32.661,30.565c1.258,12.583,0.751,14.107,0.751,14.107l2.623,2.619
		l0.396,3.617l2.292-0.145c0,0,0.718-4.842,1.437-6.97c0.719-2.128,0.495-6.436,0.495-6.436s27.593,1.759,35.05-7.727
		c4.604-5.858,15.181-16.008,15.716-1.951c0.158,4.167-1.392,10.416,1.573,14.963C204.774,128.375,203.065,131.751,203.065,131.751
		L203.065,131.751z"/>
	<path style="fill:#666666;" d="M181.846,280.463l2.057-9.467l-5.067-67.672l2.761-1.18l-2.95-3.28h-4.407l-3.027,3.204l2.84,1.256
		l-4.941,68.222l1.935,8.919L181.846,280.463L181.846,280.463z"/>
</g>
<path style="fill:#FEFEFE;" d="M222.828,261.315c-5.125-0.884-8.562-5.76-7.678-10.886c0.885-5.124,5.758-8.565,10.885-7.68
	c5.126,0.884,8.565,5.76,7.68,10.886C232.831,258.762,227.955,262.2,222.828,261.315z"/>
<path style="fill:#0F7986;" d="M222.923,260.772c-4.827-0.833-8.065-5.421-7.232-10.248c0.832-4.829,5.422-8.068,10.251-7.235
	c4.829,0.834,8.066,5.425,7.233,10.253C232.339,258.37,227.752,261.607,222.923,260.772L222.923,260.772z"/>
<path style="fill:#EBECEC;" d="M223.596,256.87c-2.669-0.461-4.463-3.001-3.999-5.671c0.461-2.674,3.001-4.462,5.671-4.002
	c2.672,0.461,4.462,3,4.002,5.671C228.809,255.537,226.27,257.331,223.596,256.87L223.596,256.87z"/>
<path style="fill:#FEFEFE;" d="M224.174,247.722l2.157,0.371l1.16-6.717l-2.157-0.371L224.174,247.722z"/>
<path style="fill:#21D0C3;" d="M151.938,263.177l4.041-0.801c1.718-0.34,3.14-1.352,4.047-2.709
	c0.905-1.355,1.297-3.057,0.957-4.773l-4.753-23.947c-1.792-9.036-8.863-13.646-16.942-14.666c-3.094-0.392-6.34-0.25-9.483,0.372
	c-3.146,0.623-6.197,1.731-8.908,3.273c-7.057,4.019-11.814,10.972-10.014,20.023l4.752,23.947c0.34,1.718,1.355,3.139,2.709,4.047
	l0.004-0.002c1.356,0.907,3.055,1.3,4.772,0.959l4.04-0.802l-0.33-1.665l-4.042,0.801c-1.259,0.249-2.506-0.038-3.5-0.702v-0.001
	c-0.994-0.667-1.738-1.71-1.986-2.966l-4.754-23.947c-1.629-8.214,2.728-14.543,9.186-18.219c2.553-1.456,5.43-2.499,8.403-3.088
	c2.97-0.588,6.032-0.722,8.947-0.353c7.392,0.936,13.858,5.123,15.484,13.32l4.755,23.947c0.249,1.259-0.04,2.505-0.705,3.5
	c-0.665,0.995-1.708,1.738-2.967,1.986l-4.042,0.801L151.938,263.177L151.938,263.177z"/>
<path style="fill:#4D4D4D;" d="M157.513,234.495l-0.729-3.658c-1.847-9.318-9.121-14.066-17.426-15.116
	c-3.156-0.398-6.46-0.255-9.663,0.38c-3.204,0.632-6.313,1.763-9.074,3.334c-7.26,4.133-12.147,11.289-10.295,20.622l0.727,3.659
	l2.774-0.552l-0.727-3.658c-1.574-7.931,2.652-14.056,8.911-17.621c2.5-1.424,5.32-2.446,8.233-3.022
	c2.914-0.578,5.911-0.709,8.769-0.349c7.164,0.906,13.427,4.954,15,12.872l0.727,3.658L157.513,234.495L157.513,234.495z"/>
<g>
	<path style="fill:#076673;" d="M123.953,269.098l2.161-0.43c0.543,0.61,1.382,0.923,2.24,0.754
		c1.287-0.254,2.123-1.505,1.867-2.793c-0.255-1.284-1.505-2.121-2.791-1.864c-0.859,0.169-1.516,0.78-1.783,1.55l-2.163,0.428
		L123.953,269.098L123.953,269.098z"/>
	<path style="fill:#076673;" d="M153.656,263.203l-2.161,0.428c-0.268,0.77-0.925,1.38-1.782,1.551
		c-1.287,0.254-2.534-0.581-2.792-1.868c-0.255-1.286,0.581-2.535,1.867-2.791c0.854-0.17,1.697,0.144,2.238,0.751l2.161-0.428
		L153.656,263.203L153.656,263.203z"/>
</g>
<path style="fill:#666666;" d="M131.01,215.883l-0.824-4.154l-1.64,0.326l-1.636,0.323l0.833,4.195
	c0.624-0.183,1.257-0.337,1.895-0.462C130.094,216.023,130.552,215.945,131.01,215.883L131.01,215.883z"/>
<g>
	<path style="fill:#0F7986;" d="M127.472,266.786c0.391-0.079,0.643-0.457,0.565-0.844c-0.077-0.389-0.453-0.644-0.841-0.565
		c-0.391,0.077-0.643,0.455-0.566,0.844C126.707,266.61,127.084,266.864,127.472,266.786L127.472,266.786z"/>
	<path style="fill:#0F7986;" d="M148.847,262.536c0.389-0.076,0.643-0.456,0.564-0.842c-0.078-0.389-0.454-0.643-0.842-0.567
		c-0.389,0.079-0.643,0.455-0.565,0.846C148.079,262.36,148.458,262.613,148.847,262.536z"/>
</g>
<path style="fill:#FEFEFE;" d="M223.334,256.825c-2.526-0.436-4.22-2.838-3.783-5.365c0.434-2.526,2.836-4.221,5.363-3.784
	c2.527,0.436,4.221,2.837,3.784,5.364C228.262,255.566,225.859,257.261,223.334,256.825L223.334,256.825z"/>
<g>
	<path style="fill:#4D4D4D;" d="M151.01,189.295c-0.074,0-25.586,0.213-21.277,22.533l-2.372,0.454
		c-4.857-25.163,23.541-25.396,23.621-25.396L151.01,189.295z"/>
	<path style="fill:#4D4D4D;" d="M201.917,187c4.164,0.112,12.211,1.246,18.403,8.781c6.061,7.371,10.308,20.911,7.131,45.734
		l-2.391-0.3c3.077-24.026-0.897-36.962-6.602-43.901c-5.573-6.779-12.838-7.801-16.596-7.902L201.917,187z"/>
</g>
<path style="fill:#FFFFFF;" d="M236.413,221.175c-3.949,5.391-5.338,11.877-4.39,18c0.948,6.121,4.23,11.883,9.622,15.832
	c5.392,3.947,11.877,5.338,18,4.389c6.122-0.946,11.884-4.23,15.833-9.622c3.947-5.392,5.337-11.877,4.389-18
	c-0.946-6.122-4.23-11.884-9.622-15.832c-5.392-3.949-11.879-5.337-18-4.389C246.123,212.5,240.36,215.782,236.413,221.175z
	 M239.747,237.979c-0.642-4.143,0.299-8.534,2.973-12.186c2.674-3.652,6.575-5.875,10.72-6.516c4.143-0.64,8.534,0.3,12.186,2.974
	c3.652,2.674,5.875,6.575,6.515,10.718c0.641,4.145-0.299,8.535-2.973,12.186c-2.674,3.652-6.575,5.875-10.718,6.516
	c-4.143,0.64-8.534-0.3-12.187-2.974C242.612,246.024,240.389,242.124,239.747,237.979z"/>
<path style="fill:#FED198;" d="M231.95,340.219h0.002c3.411-5.774,10.249-6.094,16.648-4.054l39.721,12.683l-0.987-8.399
	l-5.737-19.442l-18.101-39.926l-18.116-40.313c-2.836-6.316-0.216-13.923,6.034-16.566c6.248-2.644,13.574,0.047,16.425,6.352
	l31.178,69.073l3.065-1.168l-7.96-15.808c-3.111-6.18-0.138-13.756,6.031-16.565c6.177-2.804,13.315,0.175,16.428,6.352
	l8.648,17.182l3.469-1.322l-5.773-10.992c-3.214-6.122-0.214-13.92,6.031-16.562c6.25-2.646,13.209,0.229,16.427,6.354l6.49,12.352
	l4.158-1.586l-3.046-6.427c-2.961-6.249-0.215-13.917,6.033-16.561c6.251-2.644,13.464,0.102,16.426,6.352l6.309,13.316l1.288,2.173
	l28.142,74.341c3.821,10.085,3.451,20.151,1.209,26.837c-0.644,1.915-1.434,3.552-2.332,4.836l32.523,74.071L363.01,492.75
	l-28.459-81.565c-21.404-0.987-77.916-41.42-98.367-54.03C230.442,353.609,228.538,345.987,231.95,340.219L231.95,340.219z"/>
<path style="fill:#F0B97D;" d="M369.345,489.883l-6.334,2.863l-28.459-81.565c-21.405-0.987-77.915-41.42-98.367-54.03
	c-1.029-0.634-1.935-1.401-2.71-2.267c30.008,15.892,80.436,51.991,104.139,52.325L369.345,489.883L369.345,489.883z"/>
<path style="fill:#FF5B62;" d="M341.99,456.451l90.931-39.745l18.526,36.092l-94.518,42.698L341.99,456.451L341.99,456.451z"/>
<g>
	<path style="fill:#FFFFFF;" d="M337.584,438.716l85.2-37.754l7.252,16.902l-85.199,37.755L337.584,438.716L337.584,438.716z"/>
	<path style="fill:#FFFFFF;" d="M424.856,433.216c4.699-2.042,10.15,0.089,12.182,4.757c2.032,4.667-0.131,10.108-4.825,12.149
		c-4.699,2.039-10.152-0.091-12.187-4.757C418,440.696,420.162,435.258,424.856,433.216L424.856,433.216z"/>
	<path style="fill:#FFFFFF;" d="M262.921,230.879l4.585,9.843l-15.102,6.828l-4.591-9.843
		C244.2,229.958,260.101,222.879,262.921,230.879z M242.565,339.296L242.565,339.296l12.058,4.915l-6.099,15.594l-12.059-4.915
		C228.627,351.693,234.792,336.125,242.565,339.296z"/>
</g>
<g>
</g>
<g>
</g>
<g>
</g>
<g>
</g>
<g>
</g>
<g>
</g>
<g>
</g>
<g>
</g>
<g>
</g>
<g>
</g>
<g>
</g>
<g>
</g>
<g>
</g>
<g>
</g>
<g>
</g>
</svg>
