<svg height="100%" width="100%" id="svg" viewBox="0 0 1440 600" xmlns="http://www.w3.org/2000/svg" class="transition duration-300 ease-in-out delay-150">
<defs>
<linearGradient id="gradient">
<stop offset="5%" stop-color="#11162044">
</stop>
<stop offset="95%" stop-color="#05163044">
</stop>
</linearGradient>
</defs>
<path d="M 0,600 C 0,600 0,120 0,120 C 38.73955166671071,109.9399138227286 77.47910333342142,99.8798276454572 127,107 C 176.52089666657858,114.1201723545428 236.82313833302499,138.42060324089985 292,134 C 347.176861666975,129.57939675910015 397.22834333447884,96.43775939094344 440,86 C 482.77165666552116,75.56224060905656 518.2634883290598,87.82835919532633 568,95 C 617.7365116709402,102.17164080467367 681.7177033492823,104.24880382775122 727,111 C 772.2822966507177,117.75119617224878 798.8656982738112,129.17642549366886 846,145 C 893.1343017261888,160.82357450633114 960.8195035554734,181.0454941975733 1008,162 C 1055.1804964445266,142.9545058024267 1081.8562875042956,84.64159771603795 1127,75 C 1172.1437124957044,65.35840228396205 1235.7553464273442,104.38811493827487 1291,120 C 1346.2446535726558,135.61188506172513 1393.122326786328,127.80594253086257 1440,120 C 1440,120 1440,600 1440,600 Z" stroke="none" stroke-width="0" fill="url(#gradient)" class="transition-all duration-300 ease-in-out delay-150">
</path>
<defs>
<linearGradient id="gradient">
<stop offset="5%" stop-color="#11162066">
</stop>
<stop offset="95%" stop-color="#05163066">
</stop>
</linearGradient>
</defs>
<path d="M 0,600 C 0,600 0,240 0,240 C 35.40486134975812,257.5966718655 70.80972269951624,275.193343731 123,268 C 175.19027730048376,260.806656269 244.16597055169314,228.8232969414999 301,225 C 357.83402944830686,221.1767030585001 402.52639509371113,245.51346850300033 453,250 C 503.47360490628887,254.48653149699967 559.7284490734621,239.12282904649874 596,235 C 632.2715509265379,230.87717095350126 648.5598086124403,237.99521531100476 694,251 C 739.4401913875597,264.00478468899524 814.032316476777,282.8963097094822 866,268 C 917.967683523223,253.10369029051782 947.3109254804513,204.4195458510666 987,205 C 1026.6890745195487,205.5804541489334 1076.7239816014169,255.42550688625136 1129,266 C 1181.2760183985831,276.57449311374864 1235.793148113881,247.87842660392818 1288,237 C 1340.206851886119,226.12157339607182 1390.1034259430594,233.0607866980359 1440,240 C 1440,240 1440,600 1440,600 Z" stroke="none" stroke-width="0" fill="url(#gradient)" class="transition-all duration-300 ease-in-out delay-150">
</path>
<defs>
<linearGradient id="gradient">
<stop offset="5%" stop-color="#11162088">
</stop>
<stop offset="95%" stop-color="#05163088">
</stop>
</linearGradient>
</defs>
<path d="M 0,600 C 0,600 0,360 0,360 C 59.60306907399085,343.6599566470168 119.2061381479817,327.31991329403365 163,337 C 206.7938618520183,346.68008670596635 234.778516482064,382.3803034708821 276,395 C 317.221483517936,407.6196965291179 371.6797959237622,397.1588728224379 430,384 C 488.3202040762378,370.8411271775621 550.5022998228872,354.9842052393666 598,362 C 645.4977001771128,369.0157947606334 678.3110047846889,398.90430622009575 722,387 C 765.6889952153111,375.09569377990425 820.253681038357,321.39856988025053 870,321 C 919.746318961643,320.60143011974947 964.6742710618839,373.50141425890195 1007,386 C 1049.325728938116,398.49858574109805 1089.0492347141083,370.59577308414174 1140,362 C 1190.9507652858917,353.40422691585826 1253.1287900816833,364.1154934045309 1305,367 C 1356.8712099183167,369.8845065954691 1398.4356049591584,364.9422532977345 1440,360 C 1440,360 1440,600 1440,600 Z" stroke="none" stroke-width="0" fill="url(#gradient)" class="transition-all duration-300 ease-in-out delay-150">
</path>
<defs>
<linearGradient id="gradient">
<stop offset="5%" stop-color="#111620ff">
</stop>
<stop offset="95%" stop-color="#051630ff">
</stop>
</linearGradient>
</defs>
<path d="M 0,600 C 0,600 0,480 0,480 C 55.369042269158584,480.7888128155648 110.73808453831717,481.5776256311296 152,482 C 193.26191546168283,482.4223743688704 220.41670411588996,482.4783102910465 267,483 C 313.58329588411004,483.5216897089535 379.5950989981231,484.5091332046843 429,472 C 478.4049010018769,459.4908667953157 511.20289989161745,433.4851568902165 563,444 C 614.7971001083826,454.5148431097835 685.5933014354067,501.5502392344497 733,519 C 780.4066985645933,536.4497607655503 804.4238943667557,524.3138861719844 850,500 C 895.5761056332443,475.68611382801555 962.7111210975706,439.1942160776125 1013,436 C 1063.2888789024294,432.8057839223875 1096.7316212429616,462.9092495175658 1136,485 C 1175.2683787570384,507.0907504824342 1220.3623939305824,521.1687858521241 1272,519 C 1323.6376060694176,516.8312141478759 1381.8188030347087,498.41560707393796 1440,480 C 1440,480 1440,600 1440,600 Z" stroke="none" stroke-width="0" fill="url(#gradient)" class="transition-all duration-300 ease-in-out delay-150">
</path>
</svg>