<svg height="100%" width="100%" id="svg" viewBox="0 0 1440 600" xmlns="http://www.w3.org/2000/svg" class="transition duration-300 ease-in-out delay-150"><defs><linearGradient id="gradient"><stop offset="5%" stop-color="#a9eed144"></stop><stop offset="95%" stop-color="#98ccc044"></stop></linearGradient></defs><path d="M 0,600 C 0,600 0,120 0,120 C 42.6428719416205,126.22363334685038 85.285743883241,132.44726669370075 128,122 C 170.714256116759,111.55273330629925 213.4998964086564,84.43456657204733 259,87 C 304.5001035913436,89.56543342795267 352.71467048213356,121.8144670181099 404,121 C 455.28532951786644,120.1855329818901 509.6414216628093,86.30756535551308 546,88 C 582.3585783371907,89.69243464448692 600.7196428666292,126.95527155983774 645,134 C 689.2803571333708,141.04472844016226 759.4800068706736,117.871348405136 808,116 C 856.5199931293264,114.128651594864 883.360329650676,133.55933481961824 926,143 C 968.639670349324,152.44066518038176 1027.0786745266228,151.89131231639095 1071,132 C 1114.9213254733772,112.10868768360903 1144.3249722428325,72.87541591481782 1177,78 C 1209.6750277571675,83.12458408518218 1245.6214365020478,132.60702402433776 1290,147 C 1334.3785634979522,161.39297597566224 1387.189281748976,140.69648798783112 1440,120 C 1440,120 1440,600 1440,600 Z" stroke="none" stroke-width="0" fill="url(#gradient)" class="transition-all duration-300 ease-in-out delay-150"></path><defs><linearGradient id="gradient"><stop offset="5%" stop-color="#a9eed166"></stop><stop offset="95%" stop-color="#98ccc066"></stop></linearGradient></defs><path d="M 0,600 C 0,600 0,240 0,240 C 57.83059539346118,240.3565950499275 115.66119078692236,240.713190099855 155,254 C 194.33880921307764,267.286809900145 215.18583224577173,293.5038346505076 248,279 C 280.81416775422827,264.4961653494924 325.5954802299906,209.27147129811465 371,197 C 416.4045197700094,184.72852870188535 462.43224683426615,215.4102801570338 506,239 C 549.5677531657338,262.5897198429662 590.6755324329446,279.08740807375 631,272 C 671.3244675670554,264.91259192625 710.8656234339556,234.2400875479663 760,218 C 809.1343765660444,201.7599124520337 867.8619738312328,199.95224173438476 917,215 C 966.1380261687672,230.04775826561524 1005.6864812411129,261.95094551449483 1043,267 C 1080.313518758887,272.04905448550517 1115.3921012043158,250.243976207636 1159,238 C 1202.6078987956842,225.756023792364 1254.7451139416241,223.07314965496113 1303,225 C 1351.2548860583759,226.92685034503887 1395.6274430291878,233.46342517251944 1440,240 C 1440,240 1440,600 1440,600 Z" stroke="none" stroke-width="0" fill="url(#gradient)" class="transition-all duration-300 ease-in-out delay-150"></path><defs><linearGradient id="gradient"><stop offset="5%" stop-color="#a9eed188"></stop><stop offset="95%" stop-color="#98ccc088"></stop></linearGradient></defs><path d="M 0,600 C 0,600 0,360 0,360 C 40.777986928011984,349.3654366153786 81.55597385602397,338.73087323075725 120,325 C 158.44402614397603,311.26912676924275 194.55409150391608,294.4419436923497 238,315 C 281.4459084960839,335.5580563076503 332.22766012831164,393.50135199984413 381,392 C 429.77233987168836,390.49864800015587 476.53526798283747,329.5526483082737 527,322 C 577.4647320171625,314.4473516917263 631.6312679403385,360.28805476706117 675,368 C 718.3687320596615,375.71194523293883 750.9396602558086,345.2951326234817 788,340 C 825.0603397441914,334.7048673765183 866.610091036427,354.53141473901184 913,352 C 959.389908963573,349.46858526098816 1010.6199755984833,324.57920842047105 1056,328 C 1101.3800244015167,331.42079157952895 1140.910006569639,363.1517515791039 1180,363 C 1219.089993430361,362.8482484208961 1257.7399981229603,330.8137852631132 1301,325 C 1344.2600018770397,319.1862147368868 1392.13000093852,339.5931073684434 1440,360 C 1440,360 1440,600 1440,600 Z" stroke="none" stroke-width="0" fill="url(#gradient)" class="transition-all duration-300 ease-in-out delay-150"></path><defs><linearGradient id="gradient"><stop offset="5%" stop-color="#a9eed1ff"></stop><stop offset="95%" stop-color="#98ccc0ff"></stop></linearGradient></defs><path d="M 0,600 C 0,600 0,480 0,480 C 36.457147714172905,458.1845484214273 72.91429542834581,436.36909684285456 123,447 C 173.0857045716542,457.63090315714544 236.79996600078977,500.7081610500089 285,520 C 333.20003399921023,539.2918389499911 365.88584056849504,534.7982589571097 400,520 C 434.11415943150496,505.2017410428903 469.6566717252298,480.0988031215525 514,471 C 558.3433282747702,461.9011968784475 611.4874725305859,468.8065285566804 659,477 C 706.5125274694141,485.1934714433196 748.3934381524261,494.67508265172586 790,501 C 831.6065618475739,507.32491734827414 872.9387748597089,510.49314083641593 912,516 C 951.0612251402911,521.5068591635841 987.8514624087377,529.3523540026102 1033,513 C 1078.1485375912623,496.64764599738976 1131.6553755053396,456.09744315314333 1173,446 C 1214.3446244946604,435.90255684685667 1243.5270355699029,456.2578733848162 1286,467 C 1328.4729644300971,477.7421266151838 1384.2364822150485,478.8710633075919 1440,480 C 1440,480 1440,600 1440,600 Z" stroke="none" stroke-width="0" fill="url(#gradient)" class="transition-all duration-300 ease-in-out delay-150"></path></svg>